<svg xmlns="http://www.w3.org/2000/svg" width="289.33" height="289.33" viewBox="0 0 289.33 289.33">
    <g id="Layer_2" data-name="Layer 2">
        <g id="Layer_1-2" data-name="Layer 1">
            <path d="M144.67,16A128.8,128.8,0,0,1,273.33,144.66c0,71-57.72,128.67-128.66,128.67A128.82,128.82,0,0,1,16,144.66C16,73.71,73.73,16,144.67,16m0-16C64.9,0,0,64.9,0,144.66S64.9,289.33,144.67,289.33s144.66-64.9,144.66-144.67S224.43,0,144.67,0Z"/>
            <path d="M209,108H132.71a2.75,2.75,0,0,0-2.72,2.3l-3.57,20.91a2.77,2.77,0,0,0,2.73,3.22h48.91a2.77,2.77,0,0,1,2.73,3.23l-1.91,11.19-6.47,38c-1.36,8-8.93,14.42-16.88,14.42H116.82a2.75,2.75,0,0,0-2.72,2.29l-3.57,20.91a2.76,2.76,0,0,0,2.72,3.23H151c22.52,0,44-18.33,47.81-40.85l6.47-38,6.41-37.62A2.76,2.76,0,0,0,209,108Z"/>
            <path d="M116.55,155c-8,0-13.32-6.47-12-14.42l6.47-38c1.36-7.95,8.93-14.42,16.88-14.42h38.71a2.75,2.75,0,0,0,2.72-2.29L172.94,65a2.77,2.77,0,0,0-2.73-3.23H132.44c-22.52,0-44,18.33-47.81,40.85l-6.47,38c-3.84,22.52,11.36,40.85,33.88,40.85h38.72a2.77,2.77,0,0,0,2.72-2.3L157,158.17a2.76,2.76,0,0,0-2.72-3.22Z"/>
            <path d="M256.89,259.78v2h-4.32v12h-2.3v-12H246v-2Z"/>
            <path d="M261.61,259.78l4.47,11,4.4-11h2.92v14h-2.22v-10.3l-4.2,10.3H265l-4.19-10.3v10.3h-2.22v-14Z"/>
        </g>
    </g>
</svg>
